<svg width="158" height="25" viewBox="0 0 158 25" fill="none" xmlns="http://www.w3.org/2000/svg">
<path d="M67.5 0.5H150.04L157.413 12.9895L150.052 24.5H67.5V0.5Z" fill="#A5AABE" stroke="#A5AABE"/>
<path d="M0.5 0.5H83.0399L90.4132 12.9895L83.0516 24.5H0.5V0.5Z" fill="white" stroke="#A5AABE"/>
<path d="M15.312 6.768C15.7813 6.768 16.1813 6.77867 16.512 6.8C16.8533 6.82133 17.1627 6.85867 17.44 6.912C17.728 6.95467 18.0213 7.01333 18.32 7.088L18.176 8.16C17.856 8.128 17.5573 8.10133 17.28 8.08C17.0133 8.05867 16.7253 8.04267 16.416 8.032C16.1067 8.02133 15.7387 8.016 15.312 8.016C14.5973 8.016 14.032 8.15467 13.616 8.432C13.2 8.70933 12.9013 9.17333 12.72 9.824C12.5493 10.4747 12.464 11.36 12.464 12.48C12.464 13.6 12.5493 14.4853 12.72 15.136C12.9013 15.7867 13.2 16.2507 13.616 16.528C14.032 16.8053 14.5973 16.944 15.312 16.944C15.9947 16.944 16.5653 16.9333 17.024 16.912C17.4933 16.88 17.952 16.832 18.4 16.768L18.544 17.824C18.0853 17.952 17.6107 18.0427 17.12 18.096C16.64 18.16 16.0373 18.192 15.312 18.192C14.256 18.192 13.408 18.0107 12.768 17.648C12.1387 17.2747 11.68 16.672 11.392 15.84C11.1147 15.008 10.976 13.888 10.976 12.48C10.976 11.072 11.1147 9.952 11.392 9.12C11.68 8.288 12.1387 7.69067 12.768 7.328C13.408 6.95467 14.256 6.768 15.312 6.768ZM23.525 6.96V11.488H28.613V6.96H30.021V18H28.613V12.704H23.525V18H22.117V6.96H23.525ZM38.7245 6.96C39.0125 6.96 39.1885 7.088 39.2525 7.344L42.8045 18H41.3485L40.2605 14.544H35.7165L34.6285 18H33.1725L36.7245 7.344C36.7885 7.088 36.9645 6.96 37.2525 6.96H38.7245ZM37.4925 8.944L36.1005 13.328H39.8765L38.4845 8.944C38.4418 8.79467 38.3938 8.64533 38.3405 8.496C38.2978 8.336 38.2552 8.18667 38.2125 8.048H37.7645C37.7218 8.18667 37.6792 8.336 37.6365 8.496C37.5938 8.64533 37.5458 8.79467 37.4925 8.944ZM49.7656 6.816C50.619 6.816 51.307 6.912 51.8296 7.104C52.3523 7.28533 52.731 7.60533 52.9656 8.064C53.211 8.52267 53.3336 9.168 53.3336 10C53.3336 10.896 53.1736 11.5733 52.8536 12.032C52.5443 12.48 52.027 12.752 51.3016 12.848V12.928C51.579 13.0027 51.8456 13.168 52.1016 13.424C52.3576 13.68 52.5443 14.0427 52.6616 14.512L53.7336 18H52.2296L51.2536 14.544C51.115 14.128 50.9283 13.8347 50.6936 13.664C50.459 13.4827 50.155 13.392 49.7816 13.392C49.2696 13.392 48.811 13.392 48.4056 13.392C48.011 13.3813 47.659 13.376 47.3496 13.376V18H45.9576V6.96C46.363 6.91733 46.7416 6.88533 47.0936 6.864C47.4456 6.84267 47.8296 6.832 48.2456 6.832C48.6723 6.82133 49.179 6.816 49.7656 6.816ZM49.7336 8.032C49.2643 8.032 48.827 8.03733 48.4216 8.048C48.0163 8.048 47.659 8.048 47.3496 8.048V12.176H49.7336C50.2776 12.1653 50.7043 12.1013 51.0136 11.984C51.3336 11.8667 51.563 11.6587 51.7016 11.36C51.8403 11.0507 51.9096 10.624 51.9096 10.08C51.9096 9.536 51.8403 9.12 51.7016 8.832C51.563 8.53333 51.3336 8.32533 51.0136 8.208C50.7043 8.09067 50.2776 8.032 49.7336 8.032ZM65.0163 11.616V18H63.9923L63.8323 16.832C63.5123 17.152 63.0696 17.4613 62.5043 17.76C61.9496 18.0587 61.2936 18.208 60.5363 18.208C59.2989 18.208 58.4083 17.744 57.8643 16.816C57.3203 15.888 57.0483 14.432 57.0483 12.448C57.0483 10.9867 57.1923 9.84533 57.4803 9.024C57.7789 8.192 58.2643 7.60533 58.9363 7.264C59.6189 6.92267 60.5256 6.752 61.6563 6.752C62.2216 6.752 62.7549 6.77867 63.2563 6.832C63.7683 6.88533 64.2589 6.97067 64.7283 7.088L64.5843 8.144C64.0829 8.09067 63.5816 8.05867 63.0803 8.048C62.5896 8.02667 62.1416 8.016 61.7363 8.016C61.1389 8.016 60.6323 8.07467 60.2163 8.192C59.8109 8.29867 59.4856 8.512 59.2403 8.832C58.9949 9.152 58.8136 9.61067 58.6963 10.208C58.5896 10.8053 58.5363 11.584 58.5363 12.544C58.5363 13.632 58.6109 14.5013 58.7603 15.152C58.9096 15.792 59.1549 16.256 59.4963 16.544C59.8483 16.832 60.3229 16.976 60.9203 16.976C61.4856 16.976 61.9816 16.8693 62.4083 16.656C62.8456 16.432 63.2563 16.1813 63.6403 15.904V11.616H65.0163ZM71.1271 6.944C71.9165 6.944 72.7165 6.94933 73.5271 6.96C74.3485 6.96 75.1271 6.98667 75.8631 7.04L75.7991 8.144H71.3671C70.7271 8.144 70.4071 8.496 70.4071 9.2V11.6H75.1751V12.736H70.4071V15.76C70.4071 16.1333 70.4818 16.4053 70.6311 16.576C70.7911 16.7467 71.0365 16.832 71.3671 16.832H75.7991L75.8631 17.92C75.1271 17.9627 74.3485 17.9893 73.5271 18C72.7165 18.0107 71.9165 18.016 71.1271 18.016C70.4765 18.016 69.9591 17.8453 69.5751 17.504C69.2018 17.152 69.0098 16.6827 68.9991 16.096V8.864C69.0098 8.26667 69.2018 7.79733 69.5751 7.456C69.9591 7.11467 70.4765 6.944 71.1271 6.944Z" fill="#2B3048"/>
<path d="M104.784 12.24V12.304C105.584 12.3787 106.149 12.6613 106.48 13.152C106.821 13.632 106.992 14.3307 106.992 15.248C106.992 16.3573 106.731 17.1147 106.208 17.52C105.685 17.9253 104.773 18.128 103.472 18.128C101.701 18.128 100.341 18.0853 99.392 18V6.96C100.235 6.87467 101.429 6.832 102.976 6.832C104.352 6.832 105.307 7.03467 105.84 7.44C106.384 7.83467 106.656 8.592 106.656 9.712C106.656 10.512 106.507 11.12 106.208 11.536C105.909 11.9413 105.435 12.176 104.784 12.24ZM100.768 11.744H103.136C103.957 11.7333 104.523 11.6 104.832 11.344C105.141 11.088 105.296 10.5973 105.296 9.872C105.296 9.136 105.125 8.64533 104.784 8.4C104.453 8.15467 103.829 8.032 102.912 8.032H100.768V11.744ZM100.768 12.816V16.912C101.205 16.9227 102.032 16.928 103.248 16.928C104.144 16.928 104.752 16.8 105.072 16.544C105.403 16.288 105.568 15.776 105.568 15.008C105.568 14.1653 105.392 13.5947 105.04 13.296C104.699 12.9973 104.069 12.8373 103.152 12.816H100.768ZM116.77 14.544H112.226L111.138 18H109.682L113.234 7.344C113.298 7.088 113.474 6.96 113.762 6.96H115.234C115.522 6.96 115.698 7.088 115.762 7.344L119.314 18H117.858L116.77 14.544ZM116.386 13.328L114.994 8.944C114.898 8.66667 114.807 8.368 114.722 8.048H114.274L114.002 8.944L112.61 13.328H116.386ZM129.413 16.768L129.557 17.824C128.671 18.0693 127.594 18.192 126.325 18.192C124.735 18.192 123.615 17.7653 122.965 16.912C122.314 16.0587 121.989 14.5813 121.989 12.48C121.989 10.3787 122.314 8.90133 122.965 8.048C123.615 7.19467 124.735 6.768 126.325 6.768C127.466 6.768 128.469 6.87467 129.333 7.088L129.189 8.16C128.229 8.064 127.274 8.016 126.325 8.016C125.247 8.016 124.501 8.34133 124.085 8.992C123.679 9.632 123.477 10.7947 123.477 12.48C123.477 14.1653 123.679 15.3333 124.085 15.984C124.501 16.624 125.247 16.944 126.325 16.944C127.562 16.944 128.591 16.8853 129.413 16.768ZM135.785 12.816H134.425C134.489 13.2213 134.521 13.6107 134.521 13.984V18H133.129V6.96H134.521V10.416C134.521 10.8427 134.489 11.264 134.425 11.68H135.769L139.129 6.96H140.665L137.449 11.536C137.321 11.728 137.119 11.9627 136.841 12.24V12.272C137.14 12.56 137.369 12.816 137.529 13.04L140.889 18H139.305L135.785 12.816Z" fill="white"/>
</svg>
